<?xml version="1.0" encoding="utf-8"?>
<!-- Generator: Adobe Illustrator 12.0.0, SVG Export Plug-In . SVG Version: 6.00 Build 51448)  -->
<!DOCTYPE svg PUBLIC "-//W3C//DTD SVG 1.1//EN" "http://www.w3.org/Graphics/SVG/1.1/DTD/svg11.dtd" [
	<!ENTITY ns_svg "http://www.w3.org/2000/svg">
	<!ENTITY ns_xlink "http://www.w3.org/1999/xlink">
]>
<svg  version="1.1" id="Ebene_1" xmlns="&ns_svg;" xmlns:xlink="&ns_xlink;" width="45.15" height="45.149"
	 viewBox="0 0 45.15 45.149" overflow="visible" enable-background="new 0 0 45.15 45.149" xml:space="preserve">
<rect fill="none" stroke="#010101" stroke-width="3" x="0" y="0" width="45.150" height="45.150"/>
<!--circle fill="none" stroke="#010101" stroke-width="3" cx="22.575"
cy="22.575" r="21.075"/-->
<g enable-background="new    ">
	<path fill="#010101" d="M21.522,12.104L18.46,22.741c3.146-4.348,5.556-7.209,7.229-8.58s3.285-2.058,4.833-2.058
		c0.841,0,1.535,0.286,2.082,0.856c0.547,0.572,0.82,1.316,0.82,2.233c0,0.929-0.258,2.165-0.771,3.712l-3.247,9.77
		c-0.373,1.129-0.559,1.817-0.559,2.064c0,0.21,0.055,0.386,0.166,0.527c0.111,0.143,0.228,0.214,0.352,0.214
		c0.165,0,0.366-0.097,0.601-0.292c0.731-0.643,1.531-1.637,2.402-2.98l0.727,0.445c-1.387,2.05-2.698,3.502-3.936,4.355
		c-0.864,0.584-1.639,0.876-2.325,0.876c-0.552,0-0.991-0.176-1.319-0.527c-0.328-0.352-0.492-0.824-0.492-1.418
		c0-0.75,0.304-2.039,0.913-3.867l3.115-9.422c0.394-1.172,0.591-2.086,0.591-2.742c0-0.312-0.11-0.566-0.331-0.762
		s-0.493-0.293-0.816-0.293c-0.476,0-1.045,0.188-1.708,0.562c-1.258,0.703-2.566,1.861-3.925,3.477s-2.795,3.679-4.308,6.191
		c-0.799,1.326-1.462,2.777-1.988,4.354l-1.151,3.886h-3.478l4.231-14.688c0.5-1.756,0.75-2.812,0.75-3.17
		c0-0.342-0.137-0.642-0.409-0.897c-0.273-0.258-0.606-0.386-1.001-0.386c-0.183,0-0.501,0.031-0.956,0.094l-0.865,0.141
		l-0.206-0.844L21.522,12.104z"/>
</g>
</svg>
